<svg width="84" height="84" viewBox="0 0 84 84" fill="none" xmlns="http://www.w3.org/2000/svg">
<path d="M76.3636 38.1818C76.3636 36.0731 74.6542 34.3636 72.5455 34.3636H38.1818C36.0731 34.3636 34.3636 36.0731 34.3636 38.1818V72.5455C34.3636 74.6542 36.0731 76.3636 38.1818 76.3636H72.5455C74.6542 76.3636 76.3636 74.6542 76.3636 72.5455V38.1818ZM49.6364 15.2727V11.4545C49.6364 10.4419 49.2338 9.47102 48.5178 8.75497C47.8017 8.03892 46.8308 7.63636 45.8182 7.63636H11.4545C10.4419 7.63636 9.47102 8.03892 8.75497 8.75497C8.03892 9.47102 7.63636 10.4419 7.63636 11.4545V45.8182C7.63636 46.8308 8.03892 47.8017 8.75497 48.5178C9.47102 49.2338 10.4419 49.6364 11.4545 49.6364H15.2727C17.3815 49.6364 19.0909 51.3458 19.0909 53.4545C19.0909 55.5633 17.3815 57.2727 15.2727 57.2727H11.4545C8.41661 57.2727 5.50397 56.065 3.35582 53.9169C1.20768 51.7688 0 48.8561 0 45.8182V11.4545C0 8.41661 1.20768 5.50397 3.35582 3.35582C5.50397 1.20768 8.41661 0 11.4545 0H45.8182C48.8561 0 51.7688 1.20768 53.9169 3.35582C56.065 5.50397 57.2727 8.41661 57.2727 11.4545V15.2727C57.2727 17.3815 55.5633 19.0909 53.4545 19.0909C51.3458 19.0909 49.6364 17.3815 49.6364 15.2727ZM84 72.5455C84 78.8716 78.8716 84 72.5455 84H38.1818C31.8556 84 26.7273 78.8716 26.7273 72.5455V38.1818C26.7273 31.8556 31.8556 26.7273 38.1818 26.7273H72.5455C78.8716 26.7273 84 31.8556 84 38.1818V72.5455Z" fill="black"/>
</svg>
