<svg width="84" height="84" viewBox="0 0 84 84" fill="none" xmlns="http://www.w3.org/2000/svg">
<path d="M65.3333 84H18.6667C8.37433 84 0 75.6257 0 65.3333V18.6667C0 8.37433 8.37433 0 18.6667 0H65.3333C75.6257 0 84 8.37433 84 18.6667V65.3333C84 75.6257 75.6257 84 65.3333 84Z" fill="#1E88E5"/>
<path d="M69.8273 26.806L54.6327 42.0007L69.825 57.193C69.9277 56.8103 70 56.416 70 56.0006V28.0007C70 27.5853 69.9277 27.191 69.8273 26.806ZM48.272 41.765L66.528 23.5066C66.143 23.4063 65.7487 23.334 65.3333 23.334H18.6667C18.2513 23.334 17.857 23.4063 17.472 23.5066L35.728 41.765C39.1883 45.2207 44.8117 45.2207 48.272 41.765ZM42 49.0217C38.64 49.0217 35.2963 47.757 32.69 45.2766L17.472 60.4947C17.857 60.595 18.2513 60.6673 18.6667 60.6673H65.3333C65.7487 60.6673 66.143 60.595 66.528 60.4947L51.31 45.2766C48.7037 47.757 45.36 49.0217 42 49.0217ZM14.1727 26.806C14.0723 27.191 14 27.5853 14 28.0007V56.0006C14 56.416 14.0723 56.8103 14.1727 57.1953L29.3673 42.0007L14.1727 26.806Z" fill="white"/>
</svg>
