<svg width="84" height="84" viewBox="0 0 84 84" fill="none" xmlns="http://www.w3.org/2000/svg">
<path d="M42 0C30.8609 0 20.178 4.42499 12.3015 12.3015C4.42499 20.178 0 30.8609 0 42C0 53.1391 4.42499 63.822 12.3015 71.6985C20.178 79.575 30.8609 84 42 84C53.1391 84 63.822 79.575 71.6985 71.6985C79.575 63.822 84 53.1391 84 42C84 30.8609 79.575 20.178 71.6985 12.3015C63.822 4.42499 53.1391 0 42 0Z" fill="#039BE5"/>
<path d="M47.6856 53.132H58.5548L60.2613 42.0905H47.6834V36.0557C47.6834 31.4689 49.1822 27.4015 53.4728 27.4015H60.3674V17.7658C59.1561 17.6022 56.5941 17.2441 51.753 17.2441C41.6443 17.2441 35.7179 22.5826 35.7179 34.7449V42.0905H25.3262V53.132H35.7179V83.4804C37.7759 83.7898 39.8604 83.9998 42.0002 83.9998C43.9344 83.9998 45.8222 83.823 47.6856 83.571V53.132Z" fill="white"/>
</svg>
