<svg width="84" height="64" viewBox="0 0 84 64" fill="none" xmlns="http://www.w3.org/2000/svg">
<path d="M0 8.59606V16.4001L20.0001 31.4002V6.40005L13.7521 1.71801C12.2641 0.602005 10.4561 0 8.59606 0C3.84803 0 0 3.84803 0 8.59606Z" fill="#C62828"/>
<path d="M84.0001 8.59606V16.4001L64 31.4002V6.40005L70.248 1.71801C71.7361 0.602005 73.5441 0 75.4041 0C80.1521 0 84.0001 3.84803 84.0001 8.59606Z" fill="#FBC02D"/>
<path d="M64.0003 6.40039L42.0002 22.9005L20 6.40039L18 18.0005L20 31.4006L42.0002 47.9007L64.0003 31.4006L66.0004 18.0005L64.0003 6.40039Z" fill="#E53935"/>
<path d="M0 16.4004L7.22805 19.8204L20.0001 31.4005V64.0007H6.00004C2.68602 64.0007 0 61.3147 0 58.0007V16.4004Z" fill="#1E88E5"/>
<path d="M84.0001 16.4004L74.0001 21.9004L64 31.4005V64.0007H78.0001C81.3141 64.0007 84.0001 61.3147 84.0001 58.0007V16.4004Z" fill="#4CAF50"/>
</svg>
