<svg width="84" height="63" viewBox="0 0 84 63" fill="none" xmlns="http://www.w3.org/2000/svg">
<path d="M18.2609 29.1763V29.1526V5.50679L18.0417 5.34492H18.0235L13.0383 1.671C9.9887 -0.584281 5.64261 -0.475153 2.94 2.18025C1.13217 3.96265 0 6.43618 0 9.18253V15.7337L18.2609 29.1763ZM65.7391 29.1526V29.1763L84 15.7337V9.18253C84 6.47256 82.9043 3.99903 81.1148 2.21663C78.4487 -0.433322 74.2396 -0.744332 71.2101 1.48366L65.9583 5.34492L65.7391 5.50679V29.1526ZM21.913 31.8408L40.9153 45.8308C41.5599 46.3055 42.4419 46.3055 43.0865 45.8308L62.087 31.8408V8.19493L42 22.987L21.913 8.19493V31.8408ZM65.7391 33.6978V61.1812C65.7391 62.1852 66.5572 63 67.5652 63H79.4348C81.9566 63 84 60.9648 84 58.4531V20.2534L65.7391 33.6978ZM18.2609 33.6978L0 20.2534V58.4531C0 60.9648 2.04339 63 4.56522 63H16.4348C17.4428 63 18.2609 62.1852 18.2609 61.1812V33.6978Z" fill="#181818"/>
</svg>
