<svg width="84" height="84" viewBox="0 0 84 84" fill="none" xmlns="http://www.w3.org/2000/svg">
<path d="M24.8182 0C11.13 0 0 11.13 0 24.8182V59.1818C0 72.87 11.13 84 24.8182 84H59.1818C72.87 84 84 72.87 84 59.1818V24.8182C84 11.13 72.87 0 59.1818 0H24.8182ZM64.9091 15.2727C67.0091 15.2727 68.7273 16.9909 68.7273 19.0909C68.7273 21.1909 67.0091 22.9091 64.9091 22.9091C62.8091 22.9091 61.0909 21.1909 61.0909 19.0909C61.0909 16.9909 62.8091 15.2727 64.9091 15.2727ZM42 21C53.5882 21 63 30.4118 63 42C63 53.5882 53.5882 63 42 63C30.4118 63 21 53.5882 21 42C21 30.4118 30.4118 21 42 21ZM42 24.8182C32.5309 24.8182 24.8182 32.5309 24.8182 42C24.8182 51.4691 32.5309 59.1818 42 59.1818C51.4691 59.1818 59.1818 51.4691 59.1818 42C59.1818 32.5309 51.4691 24.8182 42 24.8182Z" fill="white"/>
</svg>
