<svg width="84" height="84" viewBox="0 0 84 84" fill="none" xmlns="http://www.w3.org/2000/svg">
<path d="M65.3618 83.9557L18.7198 84C8.45854 84.0093 0.0559783 75.6231 0.0443178 65.3618L7.77479e-06 18.7198C-0.00932063 8.45854 8.37692 0.0559783 18.6382 0.0443178L65.2802 7.77479e-06C75.5415 -0.00932063 83.944 8.37692 83.9557 18.6382L84 65.2802C84.0116 75.5438 75.6231 83.9464 65.3618 83.9557Z" fill="url(#paint0_radial_3512_5446)"/>
<path d="M65.3618 83.9557L18.7198 84C8.45854 84.0093 0.0559783 75.6231 0.0443178 65.3618L7.77479e-06 18.7198C-0.00932063 8.45854 8.37692 0.0559783 18.6382 0.0443178L65.2802 7.77479e-06C75.5415 -0.00932063 83.944 8.37692 83.9557 18.6382L84 65.2802C84.0116 75.5438 75.6231 83.9464 65.3618 83.9557Z" fill="url(#paint1_radial_3512_5446)"/>
<path d="M55.9935 72.3182H28.0083C19.0087 72.3182 11.6836 64.9954 11.6836 55.9935V28.0083C11.6836 19.0064 19.0087 11.6836 28.0083 11.6836H55.9935C64.9931 11.6836 72.3182 19.0064 72.3182 28.0083V55.9935C72.3182 64.9954 64.9931 72.3182 55.9935 72.3182ZM28.0083 16.3478C21.5787 16.3478 16.3478 21.5787 16.3478 28.0083V55.9935C16.3478 62.4231 21.5787 67.654 28.0083 67.654H55.9935C62.4231 67.654 67.654 62.4231 67.654 55.9935V28.0083C67.654 21.5787 62.4231 16.3478 55.9935 16.3478H28.0083Z" fill="white"/>
<path d="M59.4923 28.01C61.4243 28.01 62.9904 26.4438 62.9904 24.5118C62.9904 22.5798 61.4243 21.0137 59.4923 21.0137C57.5603 21.0137 55.9941 22.5798 55.9941 24.5118C55.9941 26.4438 57.5603 28.01 59.4923 28.01Z" fill="white"/>
<path d="M42.001 58.3252C33.0014 58.3252 25.6763 51.0024 25.6763 42.0005C25.6763 32.9986 33.0014 25.6758 42.001 25.6758C51.0006 25.6758 58.3257 32.9986 58.3257 42.0005C58.3257 51.0024 51.0006 58.3252 42.001 58.3252ZM42.001 30.34C35.5714 30.34 30.3405 35.5709 30.3405 42.0005C30.3405 48.4301 35.5714 53.661 42.001 53.661C48.4306 53.661 53.6615 48.4301 53.6615 42.0005C53.6615 35.5709 48.4306 30.34 42.001 30.34Z" fill="white"/>
<defs>
<radialGradient id="paint0_radial_3512_5446" cx="0" cy="0" r="1" gradientUnits="userSpaceOnUse" gradientTransform="translate(31.2269 84.0606) scale(104.709 104.709)">
<stop stop-color="#FFDD55"/>
<stop offset="0.328" stop-color="#FF543F"/>
<stop offset="0.348" stop-color="#FC5245"/>
<stop offset="0.504" stop-color="#E64771"/>
<stop offset="0.643" stop-color="#D53E91"/>
<stop offset="0.761" stop-color="#CC39A4"/>
<stop offset="0.841" stop-color="#C837AB"/>
</radialGradient>
<radialGradient id="paint1_radial_3512_5446" cx="0" cy="0" r="1" gradientUnits="userSpaceOnUse" gradientTransform="translate(13.5169 -1.04873) scale(69.527 46.3258)">
<stop stop-color="#4168C9"/>
<stop offset="0.999" stop-color="#4168C9" stop-opacity="0"/>
</radialGradient>
</defs>
</svg>
