<svg width="84" height="84" viewBox="0 0 84 84" fill="none" xmlns="http://www.w3.org/2000/svg">
<path d="M84 72.3333C84 78.778 78.778 84 72.3333 84H11.6667C5.22433 84 0 78.778 0 72.3333V11.6667C0 5.222 5.22433 0 11.6667 0H72.3333C78.778 0 84 5.222 84 11.6667V72.3333Z" fill="#0078D4"/>
<path d="M14 30.3333H25.6667V70H14V30.3333ZM19.7983 25.6667H19.733C16.2517 25.6667 14 23.072 14 19.831C14 16.52 16.3217 14 19.866 14C23.415 14 25.6013 16.52 25.6667 19.831C25.6667 23.0697 23.415 25.6667 19.7983 25.6667ZM70 70H58.3333V48.769C58.3333 43.6403 55.475 40.1403 50.8853 40.1403C47.383 40.1403 45.4883 42.5017 44.569 44.7837C44.233 45.6003 44.3333 47.859 44.3333 49V70H32.6667V30.3333H44.3333V36.4373C46.0157 33.8333 48.65 30.3333 55.3887 30.3333C63.7373 30.3333 69.9977 35.5833 69.9977 47.306L70 70Z" fill="white"/>
</svg>
