<svg width="84" height="84" viewBox="0 0 84 84" fill="none" xmlns="http://www.w3.org/2000/svg">
<path d="M65.333 0C75.6253 0 84 8.37466 84 18.667V65.333C84 75.6253 75.6253 84 65.333 84H18.667C8.37466 84 0 75.6253 0 65.333V18.667C0 8.37466 8.37466 0 18.667 0H65.333ZM51.3096 45.2764C48.7032 47.7567 45.36 49.0215 42 49.0215C38.64 49.0215 35.2968 47.7567 32.6904 45.2764L17.4717 60.4951C17.8567 60.5955 18.2517 60.667 18.667 60.667H65.333C65.7483 60.667 66.1433 60.5955 66.5283 60.4951L51.3096 45.2764ZM14.1729 26.8057C14.0725 27.1907 14 27.5856 14 28.001V56.001C14 56.4162 14.0725 56.8104 14.1729 57.1953L29.3672 42.001L14.1729 26.8057ZM54.6328 42.001L69.8252 57.1934C69.9278 56.8108 70 56.4162 70 56.001V28.001C70 27.5856 69.9275 27.1907 69.8271 26.8057L54.6328 42.001ZM18.667 23.334C18.2517 23.334 17.8567 23.4065 17.4717 23.5068L35.7275 41.7646C39.1879 45.2203 44.8121 45.2203 48.2725 41.7646L66.5283 23.5068C66.1433 23.4065 65.7483 23.334 65.333 23.334H18.667Z" fill="#181818"/>
</svg>
