<svg width="84" height="84" viewBox="0 0 84 84" fill="none" xmlns="http://www.w3.org/2000/svg">
<path d="M65.334 0C75.6262 8.9493e-05 84 8.37471 84 18.667V65.333C84 75.6253 75.6262 83.9999 65.334 84H18.667C8.37473 83.9999 0 75.6253 0 65.333V18.667C0 8.37471 8.37473 8.79468e-05 18.667 0H65.334ZM51.3105 45.2764C48.7042 47.7567 45.36 49.0215 42 49.0215C38.6402 49.0214 35.2966 47.7566 32.6904 45.2764L17.4727 60.4951C17.8575 60.5954 18.2518 60.667 18.667 60.667H65.334C65.7492 60.667 66.1435 60.5954 66.5283 60.4951L51.3105 45.2764ZM14.1729 26.8057C14.0725 27.1907 14.001 27.5856 14.001 28.001V56.001C14.001 56.4162 14.0726 56.8104 14.1729 57.1953L29.3682 42.001L14.1729 26.8057ZM54.6328 42.001L69.8252 57.1934C69.9278 56.8108 70 56.4162 70 56.001V28.001C70 27.5856 69.9285 27.1907 69.8281 26.8057L54.6328 42.001ZM18.667 23.334C18.2518 23.334 17.8576 23.4065 17.4727 23.5068L35.7285 41.7646C39.1888 45.2203 44.8121 45.2203 48.2725 41.7646L66.5283 23.5068C66.1434 23.4065 65.7492 23.334 65.334 23.334H18.667Z" fill="white"/>
</svg>
