<svg width="84" height="84" viewBox="0 0 84 84" fill="none" xmlns="http://www.w3.org/2000/svg">
<path d="M0 84L5.93454 62.4314C2.27337 56.1199 0.348054 48.9574 0.350257 41.6217C0.361271 18.6715 19.1209 0 42.1762 0C53.3646 0.00438608 63.8635 4.34003 71.7608 12.2065C79.6559 20.0751 84.0044 30.5315 84 41.6546C83.9912 64.6048 65.2271 83.2785 42.1762 83.2785H42.1586C35.1601 83.2763 28.2805 81.5284 22.1719 78.2104L0 84Z" fill="white"/>
<path d="M66.7649 17.1763C60.2003 10.6366 51.4747 7.03344 42.1874 7.03125C23.0136 7.03125 7.41946 22.5492 7.41065 41.6243C7.40844 48.1617 9.24564 54.5259 12.7262 60.037L13.5545 61.3463L10.0409 74.1119L23.1986 70.6776L24.4697 71.4277C29.8051 74.5813 35.9246 76.248 42.1632 76.2502H42.1764C61.337 76.2502 76.9311 60.73 76.9378 41.6528C76.94 32.4091 73.3294 23.7159 66.7649 17.1763Z" fill="#40C351"/>
<path fill-rule="evenodd" clip-rule="evenodd" d="M31.7216 24.2229C30.9396 22.4904 30.1157 22.4553 29.3689 22.4246C28.7587 22.3982 28.0626 22.4004 27.3665 22.4004C26.6704 22.4004 25.5381 22.6614 24.5799 23.7031C23.6216 24.7448 20.9209 27.2602 20.9209 32.3788C20.9209 37.4973 24.6658 42.4448 25.1879 43.1378C25.7099 43.8308 32.4177 54.671 43.04 58.8422C51.8669 62.3072 53.6644 61.6186 55.5809 61.4453C57.4974 61.2721 61.7644 58.9299 62.6345 56.5C63.5047 54.0701 63.5047 51.9889 63.2447 51.5547C62.9826 51.1205 62.2865 50.8617 61.2423 50.3398C60.1981 49.8178 55.0588 47.3024 54.1006 46.9559C53.1423 46.6094 52.4462 46.4361 51.7479 47.4778C51.0518 48.5173 49.0494 50.8617 48.4392 51.5547C47.829 52.2499 47.2188 52.3376 46.1747 51.8157C45.1305 51.2937 41.7645 50.1972 37.7707 46.6533C34.6646 43.8966 32.5675 40.4908 31.9573 39.4491C31.3471 38.4096 31.8912 37.846 32.4155 37.3263C32.8847 36.8591 33.4597 36.1113 33.9839 35.5038C34.506 34.8964 34.6801 34.4622 35.0281 33.7692C35.3762 33.074 35.2021 32.4665 34.94 31.9467C34.6823 31.4248 32.6512 26.2799 31.7216 24.2229Z" fill="white"/>
</svg>
