<svg width="84" height="84" viewBox="0 0 84 84" fill="none" xmlns="http://www.w3.org/2000/svg">
<path d="M42.0001 0C18.8418 0 0.000271033 18.8416 0.000271033 42C0.000271033 49.2313 1.86835 56.3421 5.41095 62.6165L0.0678359 81.6809C-0.107468 82.3072 0.0623579 82.9792 0.515226 83.4449C0.864007 83.8046 1.33879 84 1.82635 84C1.97244 84 2.12035 83.9817 2.26461 83.947L22.1616 79.0184C28.237 82.2798 35.0793 84 42.0001 84C65.1585 84 84 65.1584 84 42C84 18.8416 65.1585 0 42.0001 0ZM63.1279 56.8205C62.2295 59.3077 57.9199 61.5775 55.8491 61.8824C53.9902 62.1545 51.6382 62.2714 49.0561 61.4606C47.4912 60.9676 45.4825 60.3138 42.9095 59.2164C32.0936 54.6037 25.0304 43.8498 24.4898 43.1395C23.9512 42.4291 20.0872 37.3672 20.0872 32.1282C20.0872 26.8891 22.8719 24.3125 23.8617 23.2461C24.8514 22.1797 26.0183 21.913 26.7378 21.913C27.4572 21.913 28.1749 21.9222 28.8049 21.9514C29.4677 21.9843 30.357 21.7012 31.2317 23.7793C32.1302 25.9122 34.2868 31.1512 34.5534 31.6863C34.8236 32.2195 35.0026 32.8422 34.6447 33.5525C34.2868 34.2629 34.1078 34.7066 33.5673 35.3293C33.0268 35.952 32.4351 36.7171 31.9494 37.1956C31.4089 37.727 30.8483 38.3022 31.4764 39.3686C32.1046 40.435 34.2685 43.921 37.4751 46.7442C41.5929 50.3708 45.068 51.4957 46.1453 52.0289C47.2227 52.5621 47.8527 52.4726 48.4809 51.7623C49.1091 51.0501 51.1762 48.6524 51.8938 47.5878C52.6115 46.5232 53.331 46.6985 54.3207 47.0546C55.3104 47.4089 60.6116 49.9837 61.6889 50.5169C62.7663 51.0501 63.4858 51.3167 63.7561 51.7604C64.0263 52.2023 64.0263 54.3352 63.1279 56.8205Z" fill="white"/>
</svg>
